<?xml version="1.0" encoding="UTF-8" standalone="no"?><!DOCTYPE svg PUBLIC "-//W3C//DTD SVG 1.1//EN" "http://www.w3.org/Graphics/SVG/1.1/DTD/svg11.dtd"><svg width="100%" height="100%" viewBox="0 0 512 512" version="1.1" xmlns="http://www.w3.org/2000/svg" xmlns:xlink="http://www.w3.org/1999/xlink" xml:space="preserve" xmlns:serif="http://www.serif.com/" style="fill-rule:evenodd;clip-rule:evenodd;stroke-linejoin:round;stroke-miterlimit:1.41421;"><path d="M256,504c-137,0 -248,-111 -248,-248c0,-137 111,-248 248,-248c137,0 248,111 248,248c0,137 -111,248 -248,248Zm28.9,-143.6l-75.5,-72.4l182.6,0c13.3,0 24,-10.7 24,-24l0,-16c0,-13.3 -10.7,-24 -24,-24l-182.6,0l75.5,-72.4c9.7,-9.3 9.9,-24.8 0.4,-34.3l-11,-10.9c-9.4,-9.4 -24.6,-9.4 -33.9,0l-132.7,132.6c-9.4,9.4 -9.4,24.6 0,33.9l132.7,132.7c9.4,9.4 24.6,9.4 33.9,0l11,-10.9c9.5,-9.5 9.3,-25 -0.4,-34.3Z" style="fill:#fff;fill-rule:nonzero;"/></svg>